<?xml version="1.0" encoding="UTF-8"?>
<svg width="20px" height="18px" viewBox="0 0 20 18" version="1.1" xmlns="http://www.w3.org/2000/svg" xmlns:xlink="http://www.w3.org/1999/xlink">
    <!-- Generator: Sketch 58 (84663) - https://sketch.com -->
    <title>baseline-camera_alt-24px</title>
    <desc>Created with Sketch.</desc>
    <g id="Owner-App---Current" stroke="none" stroke-width="1" fill="none" fill-rule="evenodd" opacity="1">
        <g id="11--Name:-Complete---Number-Verified" transform="translate(-170.000000, -153.000000)">
            <g id="baseline-camera_alt-24px" transform="translate(168.000000, 151.000000)">
                <circle id="Oval" fill="#FFFFFF" fill-rule="nonzero" cx="12" cy="12" r="3.2"></circle>
                <path d="M9,2 L7.17,4 L4,4 C2.9,4 2,4.9 2,6 L2,18 C2,19.1 2.9,20 4,20 L20,20 C21.1,20 22,19.1 22,18 L22,6 C22,4.9 21.1,4 20,4 L16.83,4 L15,2 L9,2 Z M12,17 C9.24,17 7,14.76 7,12 C7,9.24 9.24,7 12,7 C14.76,7 17,9.24 17,12 C17,14.76 14.76,17 12,17 Z" id="Shape" fill="#728f99" fill-rule="nonzero"></path>
                <polygon id="Path" points="0 0 24 0 24 24 0 24"></polygon>
            </g>
        </g>
    </g>
</svg>