<?xml version="1.0" encoding="UTF-8"?>
<svg width="30px" height="30px" viewBox="0 0 30 30" version="1.1" xmlns="http://www.w3.org/2000/svg" xmlns:xlink="http://www.w3.org/1999/xlink">
    <!-- Generator: Sketch 58 (84663) - https://sketch.com -->
    <title>ic-photo-library-24px</title>
    <desc>Created with Sketch.</desc>
    <g id="Owner-App---Current---0" stroke="none" stroke-width="1" fill="none" fill-rule="evenodd">
        <g id="13-File-Access-Modal" transform="translate(-242.000000, -489.000000)">
            <g id="ic-photo-library-24px" transform="translate(239.000000, 486.000000)">
                <polygon id="Path" points="0 0 36 0 36 36 0 36"></polygon>
                <path d="M33,24 L33,6 C33,4.35 31.65,3 30,3 L12,3 C10.35,3 9,4.35 9,6 L9,24 C9,25.65 10.35,27 12,27 L30,27 C31.65,27 33,25.65 33,24 Z M16.5,18 L19.545,22.065 L24,16.5 L30,24 L12,24 L16.5,18 Z M3,9 L3,30 C3,31.65 4.35,33 6,33 L27,33 L27,30 L6,30 L6,9 L3,9 Z" id="Shape" fill="#728f99" fill-rule="nonzero"></path>
            </g>
        </g>
    </g>
</svg>