<?xml version="1.0" encoding="UTF-8"?>
<svg width="24px" height="24px" viewBox="0 0 24 24" version="1.1" xmlns="http://www.w3.org/2000/svg" xmlns:xlink="http://www.w3.org/1999/xlink">
    <!-- Generator: Sketch 57 (83077) - https://sketch.com -->
    <title>icons/nav/right/reload</title>
    <desc>Created with Sketch.</desc>
    <g id="icons/nav/right/reload" stroke="none" stroke-width="1" fill="none" fill-rule="evenodd">
        <rect id="Rectangle" x="0" y="0" width="24" height="24"></rect>
        <g id="ic-menu-18px">
            <polygon id="Path" points="0 0 24 0 24 24 0 24"></polygon>
        </g>
        <g id="ic-replay-24px">
            <polygon id="Path" points="0 0 24 0 24 24 0 24"></polygon>
            <path d="M12,5 L12,1 L7,6 L12,11 L12,7 C15.31,7 18,9.69 18,13 C18,16.31 15.31,19 12,19 C8.69,19 6,16.31 6,13 L4,13 C4,17.42 7.58,21 12,21 C16.42,21 20,17.42 20,13 C20,8.58 16.42,5 12,5 Z" id="Path" fill="#000000" fill-rule="nonzero"></path>
        </g>
    </g>
</svg>